<mxfile host="app.diagrams.net" modified="2023-10-31T09:48:31.676Z" agent="Mozilla/5.0 (Windows NT 10.0; Win64; x64) AppleWebKit/537.36 (KHTML, like Gecko) Chrome/118.0.0.0 Safari/537.36" etag="J1qPW2Mm5ImksWenefoy" version="22.0.8" type="device">
  <diagram name="Pagina-1" id="hgmdcYagX1CjRXvegKdF">
    <mxGraphModel dx="420" dy="1828" grid="1" gridSize="10" guides="1" tooltips="1" connect="1" arrows="1" fold="1" page="1" pageScale="1" pageWidth="827" pageHeight="1169" math="0" shadow="0">
      <root>
        <mxCell id="0" />
        <mxCell id="1" parent="0" />
        <mxCell id="yBNtK0Aa-It0LNoj2Aof-60" style="edgeStyle=orthogonalEdgeStyle;rounded=0;orthogonalLoop=1;jettySize=auto;html=1;exitX=0.5;exitY=0;exitDx=0;exitDy=0;entryX=0.5;entryY=1;entryDx=0;entryDy=0;" edge="1" parent="1" source="yBNtK0Aa-It0LNoj2Aof-22" target="yBNtK0Aa-It0LNoj2Aof-58">
          <mxGeometry relative="1" as="geometry" />
        </mxCell>
        <mxCell id="yBNtK0Aa-It0LNoj2Aof-22" value="Soci" style="whiteSpace=wrap;html=1;align=center;" vertex="1" parent="1">
          <mxGeometry x="870" y="-560" width="100" height="60" as="geometry" />
        </mxCell>
        <mxCell id="yBNtK0Aa-It0LNoj2Aof-67" style="edgeStyle=orthogonalEdgeStyle;rounded=0;orthogonalLoop=1;jettySize=auto;html=1;exitX=1;exitY=0.5;exitDx=0;exitDy=0;" edge="1" parent="1" source="yBNtK0Aa-It0LNoj2Aof-23" target="yBNtK0Aa-It0LNoj2Aof-68">
          <mxGeometry relative="1" as="geometry">
            <mxPoint x="1430" y="-360" as="targetPoint" />
          </mxGeometry>
        </mxCell>
        <mxCell id="yBNtK0Aa-It0LNoj2Aof-23" value="Prestazioni" style="whiteSpace=wrap;html=1;align=center;" vertex="1" parent="1">
          <mxGeometry x="1230" y="-350" width="100" height="40" as="geometry" />
        </mxCell>
        <mxCell id="yBNtK0Aa-It0LNoj2Aof-73" style="edgeStyle=orthogonalEdgeStyle;rounded=0;orthogonalLoop=1;jettySize=auto;html=1;exitX=1;exitY=0.5;exitDx=0;exitDy=0;" edge="1" parent="1" source="yBNtK0Aa-It0LNoj2Aof-24" target="yBNtK0Aa-It0LNoj2Aof-70">
          <mxGeometry relative="1" as="geometry" />
        </mxCell>
        <mxCell id="yBNtK0Aa-It0LNoj2Aof-24" value="Materie" style="whiteSpace=wrap;html=1;align=center;" vertex="1" parent="1">
          <mxGeometry x="1230" y="-180" width="100" height="40" as="geometry" />
        </mxCell>
        <mxCell id="yBNtK0Aa-It0LNoj2Aof-32" value="" style="endArrow=none;html=1;rounded=0;exitX=0.045;exitY=0.512;exitDx=0;exitDy=0;entryX=0.5;entryY=1;entryDx=0;entryDy=0;exitPerimeter=0;" edge="1" parent="1" source="yBNtK0Aa-It0LNoj2Aof-35" target="yBNtK0Aa-It0LNoj2Aof-22">
          <mxGeometry relative="1" as="geometry">
            <mxPoint x="1330" y="-300" as="sourcePoint" />
            <mxPoint x="1330" y="-180" as="targetPoint" />
            <Array as="points">
              <mxPoint x="920" y="-329" />
            </Array>
          </mxGeometry>
        </mxCell>
        <mxCell id="yBNtK0Aa-It0LNoj2Aof-33" value="" style="resizable=0;html=1;whiteSpace=wrap;align=left;verticalAlign=bottom;" connectable="0" vertex="1" parent="yBNtK0Aa-It0LNoj2Aof-32">
          <mxGeometry x="-1" relative="1" as="geometry">
            <mxPoint x="-20" as="offset" />
          </mxGeometry>
        </mxCell>
        <mxCell id="yBNtK0Aa-It0LNoj2Aof-34" value="N" style="resizable=0;html=1;whiteSpace=wrap;align=right;verticalAlign=bottom;" connectable="0" vertex="1" parent="yBNtK0Aa-It0LNoj2Aof-32">
          <mxGeometry x="1" relative="1" as="geometry">
            <mxPoint x="-10" y="30" as="offset" />
          </mxGeometry>
        </mxCell>
        <mxCell id="yBNtK0Aa-It0LNoj2Aof-35" value="Eroga" style="shape=rhombus;perimeter=rhombusPerimeter;whiteSpace=wrap;html=1;align=center;" vertex="1" parent="1">
          <mxGeometry x="1040" y="-360" width="120" height="60" as="geometry" />
        </mxCell>
        <mxCell id="yBNtK0Aa-It0LNoj2Aof-36" value="" style="endArrow=none;html=1;rounded=0;exitX=0;exitY=0.5;exitDx=0;exitDy=0;entryX=1;entryY=0.5;entryDx=0;entryDy=0;" edge="1" parent="1" source="yBNtK0Aa-It0LNoj2Aof-23" target="yBNtK0Aa-It0LNoj2Aof-35">
          <mxGeometry relative="1" as="geometry">
            <mxPoint x="1055" y="-319" as="sourcePoint" />
            <mxPoint x="980" y="-320" as="targetPoint" />
            <Array as="points" />
          </mxGeometry>
        </mxCell>
        <mxCell id="yBNtK0Aa-It0LNoj2Aof-37" value="" style="resizable=0;html=1;whiteSpace=wrap;align=left;verticalAlign=bottom;" connectable="0" vertex="1" parent="yBNtK0Aa-It0LNoj2Aof-36">
          <mxGeometry x="-1" relative="1" as="geometry">
            <mxPoint x="-20" as="offset" />
          </mxGeometry>
        </mxCell>
        <mxCell id="yBNtK0Aa-It0LNoj2Aof-38" value="N" style="resizable=0;html=1;whiteSpace=wrap;align=right;verticalAlign=bottom;" connectable="0" vertex="1" parent="yBNtK0Aa-It0LNoj2Aof-36">
          <mxGeometry x="1" relative="1" as="geometry">
            <mxPoint x="60" as="offset" />
          </mxGeometry>
        </mxCell>
        <mxCell id="yBNtK0Aa-It0LNoj2Aof-39" value="" style="resizable=0;html=1;whiteSpace=wrap;align=left;verticalAlign=bottom;" connectable="0" vertex="1" parent="1">
          <mxGeometry x="1320" y="-249.2800000000002" as="geometry" />
        </mxCell>
        <mxCell id="yBNtK0Aa-It0LNoj2Aof-40" value="Riguarda" style="shape=rhombus;perimeter=rhombusPerimeter;whiteSpace=wrap;html=1;align=center;" vertex="1" parent="1">
          <mxGeometry x="1220" y="-279.28" width="120" height="60" as="geometry" />
        </mxCell>
        <mxCell id="yBNtK0Aa-It0LNoj2Aof-41" value="" style="resizable=0;html=1;whiteSpace=wrap;align=left;verticalAlign=bottom;" connectable="0" vertex="1" parent="1">
          <mxGeometry x="1504.6" y="-250" as="geometry" />
        </mxCell>
        <mxCell id="yBNtK0Aa-It0LNoj2Aof-42" value="" style="endArrow=none;html=1;rounded=0;exitX=0.5;exitY=0;exitDx=0;exitDy=0;entryX=0.5;entryY=1;entryDx=0;entryDy=0;" edge="1" parent="1" source="yBNtK0Aa-It0LNoj2Aof-24" target="yBNtK0Aa-It0LNoj2Aof-40">
          <mxGeometry relative="1" as="geometry">
            <mxPoint x="1240" y="-320" as="sourcePoint" />
            <mxPoint x="1170" y="-320" as="targetPoint" />
            <Array as="points">
              <mxPoint x="1280" y="-190" />
            </Array>
          </mxGeometry>
        </mxCell>
        <mxCell id="yBNtK0Aa-It0LNoj2Aof-43" value="" style="resizable=0;html=1;whiteSpace=wrap;align=left;verticalAlign=bottom;" connectable="0" vertex="1" parent="yBNtK0Aa-It0LNoj2Aof-42">
          <mxGeometry x="-1" relative="1" as="geometry">
            <mxPoint x="-20" as="offset" />
          </mxGeometry>
        </mxCell>
        <mxCell id="yBNtK0Aa-It0LNoj2Aof-44" value="1" style="resizable=0;html=1;whiteSpace=wrap;align=right;verticalAlign=bottom;" connectable="0" vertex="1" parent="yBNtK0Aa-It0LNoj2Aof-42">
          <mxGeometry x="1" relative="1" as="geometry">
            <mxPoint x="20" y="39" as="offset" />
          </mxGeometry>
        </mxCell>
        <mxCell id="yBNtK0Aa-It0LNoj2Aof-45" value="" style="endArrow=none;html=1;rounded=0;exitX=0.5;exitY=1;exitDx=0;exitDy=0;entryX=0.5;entryY=0;entryDx=0;entryDy=0;" edge="1" parent="1" source="yBNtK0Aa-It0LNoj2Aof-23" target="yBNtK0Aa-It0LNoj2Aof-40">
          <mxGeometry relative="1" as="geometry">
            <mxPoint x="1240" y="-320" as="sourcePoint" />
            <mxPoint x="1170" y="-320" as="targetPoint" />
            <Array as="points">
              <mxPoint x="1280" y="-280" />
            </Array>
          </mxGeometry>
        </mxCell>
        <mxCell id="yBNtK0Aa-It0LNoj2Aof-46" value="" style="resizable=0;html=1;whiteSpace=wrap;align=left;verticalAlign=bottom;" connectable="0" vertex="1" parent="yBNtK0Aa-It0LNoj2Aof-45">
          <mxGeometry x="-1" relative="1" as="geometry">
            <mxPoint x="-20" as="offset" />
          </mxGeometry>
        </mxCell>
        <mxCell id="yBNtK0Aa-It0LNoj2Aof-47" value="N" style="resizable=0;html=1;whiteSpace=wrap;align=right;verticalAlign=bottom;" connectable="0" vertex="1" parent="yBNtK0Aa-It0LNoj2Aof-45">
          <mxGeometry x="1" relative="1" as="geometry">
            <mxPoint x="20" y="-10" as="offset" />
          </mxGeometry>
        </mxCell>
        <mxCell id="yBNtK0Aa-It0LNoj2Aof-48" value="" style="endArrow=none;html=1;rounded=0;exitX=0.5;exitY=1;exitDx=0;exitDy=0;" edge="1" parent="1" source="yBNtK0Aa-It0LNoj2Aof-51" target="yBNtK0Aa-It0LNoj2Aof-23">
          <mxGeometry relative="1" as="geometry">
            <mxPoint x="1506" y="-480" as="sourcePoint" />
            <mxPoint x="1146" y="-510" as="targetPoint" />
            <Array as="points" />
          </mxGeometry>
        </mxCell>
        <mxCell id="yBNtK0Aa-It0LNoj2Aof-49" value="" style="resizable=0;html=1;whiteSpace=wrap;align=left;verticalAlign=bottom;" connectable="0" vertex="1" parent="yBNtK0Aa-It0LNoj2Aof-48">
          <mxGeometry x="-1" relative="1" as="geometry">
            <mxPoint x="-20" as="offset" />
          </mxGeometry>
        </mxCell>
        <mxCell id="yBNtK0Aa-It0LNoj2Aof-50" value="N" style="resizable=0;html=1;whiteSpace=wrap;align=right;verticalAlign=bottom;" connectable="0" vertex="1" parent="yBNtK0Aa-It0LNoj2Aof-48">
          <mxGeometry x="1" relative="1" as="geometry">
            <mxPoint x="20" as="offset" />
          </mxGeometry>
        </mxCell>
        <mxCell id="yBNtK0Aa-It0LNoj2Aof-51" value="Usufruisce" style="shape=rhombus;perimeter=rhombusPerimeter;whiteSpace=wrap;html=1;align=center;" vertex="1" parent="1">
          <mxGeometry x="1220" y="-430" width="120" height="60" as="geometry" />
        </mxCell>
        <mxCell id="yBNtK0Aa-It0LNoj2Aof-53" value="" style="endArrow=none;html=1;rounded=0;exitX=0.5;exitY=0;exitDx=0;exitDy=0;entryX=1;entryY=0.25;entryDx=0;entryDy=0;" edge="1" parent="1" source="yBNtK0Aa-It0LNoj2Aof-75" target="yBNtK0Aa-It0LNoj2Aof-22">
          <mxGeometry relative="1" as="geometry">
            <mxPoint x="1485" y="-660" as="sourcePoint" />
            <mxPoint x="1150" y="-730" as="targetPoint" />
            <Array as="points">
              <mxPoint x="1110" y="-580" />
              <mxPoint x="970" y="-580" />
            </Array>
          </mxGeometry>
        </mxCell>
        <mxCell id="yBNtK0Aa-It0LNoj2Aof-54" value="" style="resizable=0;html=1;whiteSpace=wrap;align=left;verticalAlign=bottom;" connectable="0" vertex="1" parent="yBNtK0Aa-It0LNoj2Aof-53">
          <mxGeometry x="-1" relative="1" as="geometry">
            <mxPoint x="-20" as="offset" />
          </mxGeometry>
        </mxCell>
        <mxCell id="yBNtK0Aa-It0LNoj2Aof-55" value="1" style="resizable=0;html=1;whiteSpace=wrap;align=right;verticalAlign=bottom;" connectable="0" vertex="1" parent="yBNtK0Aa-It0LNoj2Aof-53">
          <mxGeometry x="1" relative="1" as="geometry">
            <mxPoint x="-10" y="-25" as="offset" />
          </mxGeometry>
        </mxCell>
        <mxCell id="yBNtK0Aa-It0LNoj2Aof-57" value="Soci" style="swimlane;childLayout=stackLayout;horizontal=1;startSize=50;horizontalStack=0;rounded=1;fontSize=14;fontStyle=0;strokeWidth=2;resizeParent=0;resizeLast=1;shadow=0;dashed=0;align=center;arcSize=4;whiteSpace=wrap;html=1;" vertex="1" parent="1">
          <mxGeometry x="840" y="-860" width="160" height="210" as="geometry" />
        </mxCell>
        <mxCell id="yBNtK0Aa-It0LNoj2Aof-58" value="Id&lt;br&gt;Nome&lt;br&gt;Cognome&lt;br&gt;Età&lt;br&gt;Email&lt;br&gt;Password&lt;br&gt;Telefono&lt;br&gt;OrePrestazioniErogate&lt;br&gt;OrePrestazioniUsufruite&lt;br&gt;IdResponsabile" style="align=left;strokeColor=none;fillColor=none;spacingLeft=4;fontSize=12;verticalAlign=top;resizable=0;rotatable=0;part=1;html=1;" vertex="1" parent="yBNtK0Aa-It0LNoj2Aof-57">
          <mxGeometry y="50" width="160" height="160" as="geometry" />
        </mxCell>
        <mxCell id="yBNtK0Aa-It0LNoj2Aof-68" value="Prestazioni" style="swimlane;childLayout=stackLayout;horizontal=1;startSize=50;horizontalStack=0;rounded=1;fontSize=14;fontStyle=0;strokeWidth=2;resizeParent=0;resizeLast=1;shadow=0;dashed=0;align=center;arcSize=4;whiteSpace=wrap;html=1;" vertex="1" parent="1">
          <mxGeometry x="1380" y="-500" width="160" height="140" as="geometry" />
        </mxCell>
        <mxCell id="yBNtK0Aa-It0LNoj2Aof-69" value="Id&lt;br&gt;Durata&lt;br&gt;Data&lt;br&gt;Tipo ( online/presenza )&lt;br&gt;IdMateria" style="align=left;strokeColor=none;fillColor=none;spacingLeft=4;fontSize=12;verticalAlign=top;resizable=0;rotatable=0;part=1;html=1;" vertex="1" parent="yBNtK0Aa-It0LNoj2Aof-68">
          <mxGeometry y="50" width="160" height="90" as="geometry" />
        </mxCell>
        <mxCell id="yBNtK0Aa-It0LNoj2Aof-70" value="Materie" style="swimlane;childLayout=stackLayout;horizontal=1;startSize=50;horizontalStack=0;rounded=1;fontSize=14;fontStyle=0;strokeWidth=2;resizeParent=0;resizeLast=1;shadow=0;dashed=0;align=center;arcSize=4;whiteSpace=wrap;html=1;" vertex="1" parent="1">
          <mxGeometry x="1424.6" y="-220" width="160" height="120" as="geometry" />
        </mxCell>
        <mxCell id="yBNtK0Aa-It0LNoj2Aof-71" value="Id&lt;br&gt;Materia" style="align=left;strokeColor=none;fillColor=none;spacingLeft=4;fontSize=12;verticalAlign=top;resizable=0;rotatable=0;part=1;html=1;" vertex="1" parent="yBNtK0Aa-It0LNoj2Aof-70">
          <mxGeometry y="50" width="160" height="70" as="geometry" />
        </mxCell>
        <mxCell id="yBNtK0Aa-It0LNoj2Aof-75" value="Responsabile" style="shape=rhombus;perimeter=rhombusPerimeter;whiteSpace=wrap;html=1;align=center;" vertex="1" parent="1">
          <mxGeometry x="1050" y="-550" width="120" height="60" as="geometry" />
        </mxCell>
        <mxCell id="yBNtK0Aa-It0LNoj2Aof-77" value="" style="endArrow=none;html=1;rounded=0;entryX=0.75;entryY=1;entryDx=0;entryDy=0;" edge="1" parent="1" target="yBNtK0Aa-It0LNoj2Aof-22">
          <mxGeometry relative="1" as="geometry">
            <mxPoint x="1280" y="-430" as="sourcePoint" />
            <mxPoint x="955" y="-490" as="targetPoint" />
            <Array as="points">
              <mxPoint x="1280" y="-440" />
              <mxPoint x="1120" y="-440" />
              <mxPoint x="945" y="-440" />
            </Array>
          </mxGeometry>
        </mxCell>
        <mxCell id="yBNtK0Aa-It0LNoj2Aof-78" value="" style="resizable=0;html=1;whiteSpace=wrap;align=left;verticalAlign=bottom;" connectable="0" vertex="1" parent="yBNtK0Aa-It0LNoj2Aof-77">
          <mxGeometry x="-1" relative="1" as="geometry">
            <mxPoint x="-20" as="offset" />
          </mxGeometry>
        </mxCell>
        <mxCell id="yBNtK0Aa-It0LNoj2Aof-79" value="N" style="resizable=0;html=1;whiteSpace=wrap;align=right;verticalAlign=bottom;" connectable="0" vertex="1" parent="yBNtK0Aa-It0LNoj2Aof-77">
          <mxGeometry x="1" relative="1" as="geometry">
            <mxPoint x="15" y="22" as="offset" />
          </mxGeometry>
        </mxCell>
        <mxCell id="yBNtK0Aa-It0LNoj2Aof-80" value="" style="endArrow=none;html=1;rounded=0;exitX=0.5;exitY=1;exitDx=0;exitDy=0;entryX=1;entryY=0.75;entryDx=0;entryDy=0;" edge="1" parent="1" source="yBNtK0Aa-It0LNoj2Aof-75" target="yBNtK0Aa-It0LNoj2Aof-22">
          <mxGeometry relative="1" as="geometry">
            <mxPoint x="1120" y="-540" as="sourcePoint" />
            <mxPoint x="980" y="-535" as="targetPoint" />
            <Array as="points">
              <mxPoint x="1110" y="-480" />
              <mxPoint x="1020" y="-480" />
              <mxPoint x="1020" y="-515" />
            </Array>
          </mxGeometry>
        </mxCell>
        <mxCell id="yBNtK0Aa-It0LNoj2Aof-81" value="" style="resizable=0;html=1;whiteSpace=wrap;align=left;verticalAlign=bottom;" connectable="0" vertex="1" parent="yBNtK0Aa-It0LNoj2Aof-80">
          <mxGeometry x="-1" relative="1" as="geometry">
            <mxPoint x="-20" as="offset" />
          </mxGeometry>
        </mxCell>
        <mxCell id="yBNtK0Aa-It0LNoj2Aof-82" value="N" style="resizable=0;html=1;whiteSpace=wrap;align=right;verticalAlign=bottom;" connectable="0" vertex="1" parent="yBNtK0Aa-It0LNoj2Aof-80">
          <mxGeometry x="1" relative="1" as="geometry">
            <mxPoint x="20" y="-5" as="offset" />
          </mxGeometry>
        </mxCell>
        <mxCell id="yBNtK0Aa-It0LNoj2Aof-86" value="" style="endArrow=none;html=1;rounded=0;entryX=0.143;entryY=0.983;entryDx=0;entryDy=0;entryPerimeter=0;exitX=0;exitY=0.5;exitDx=0;exitDy=0;" edge="1" parent="1" source="yBNtK0Aa-It0LNoj2Aof-89" target="yBNtK0Aa-It0LNoj2Aof-22">
          <mxGeometry relative="1" as="geometry">
            <mxPoint x="1000" y="-160" as="sourcePoint" />
            <mxPoint x="930" y="-490" as="targetPoint" />
            <Array as="points">
              <mxPoint x="880" y="-160" />
            </Array>
          </mxGeometry>
        </mxCell>
        <mxCell id="yBNtK0Aa-It0LNoj2Aof-87" value="" style="resizable=0;html=1;whiteSpace=wrap;align=left;verticalAlign=bottom;" connectable="0" vertex="1" parent="yBNtK0Aa-It0LNoj2Aof-86">
          <mxGeometry x="-1" relative="1" as="geometry">
            <mxPoint x="-20" as="offset" />
          </mxGeometry>
        </mxCell>
        <mxCell id="yBNtK0Aa-It0LNoj2Aof-88" value="N" style="resizable=0;html=1;whiteSpace=wrap;align=right;verticalAlign=bottom;" connectable="0" vertex="1" parent="yBNtK0Aa-It0LNoj2Aof-86">
          <mxGeometry x="1" relative="1" as="geometry">
            <mxPoint x="-10" y="30" as="offset" />
          </mxGeometry>
        </mxCell>
        <mxCell id="yBNtK0Aa-It0LNoj2Aof-89" value="Insegna" style="shape=rhombus;perimeter=rhombusPerimeter;whiteSpace=wrap;html=1;align=center;" vertex="1" parent="1">
          <mxGeometry x="1000" y="-190" width="120" height="60" as="geometry" />
        </mxCell>
        <mxCell id="yBNtK0Aa-It0LNoj2Aof-90" value="" style="endArrow=none;html=1;rounded=0;exitX=0;exitY=0.5;exitDx=0;exitDy=0;entryX=1;entryY=0.5;entryDx=0;entryDy=0;" edge="1" parent="1" source="yBNtK0Aa-It0LNoj2Aof-24" target="yBNtK0Aa-It0LNoj2Aof-89">
          <mxGeometry relative="1" as="geometry">
            <mxPoint x="1240" y="-320" as="sourcePoint" />
            <mxPoint x="1170" y="-320" as="targetPoint" />
            <Array as="points" />
          </mxGeometry>
        </mxCell>
        <mxCell id="yBNtK0Aa-It0LNoj2Aof-91" value="" style="resizable=0;html=1;whiteSpace=wrap;align=left;verticalAlign=bottom;" connectable="0" vertex="1" parent="yBNtK0Aa-It0LNoj2Aof-90">
          <mxGeometry x="-1" relative="1" as="geometry">
            <mxPoint x="-20" as="offset" />
          </mxGeometry>
        </mxCell>
        <mxCell id="yBNtK0Aa-It0LNoj2Aof-92" value="N" style="resizable=0;html=1;whiteSpace=wrap;align=right;verticalAlign=bottom;" connectable="0" vertex="1" parent="yBNtK0Aa-It0LNoj2Aof-90">
          <mxGeometry x="1" relative="1" as="geometry">
            <mxPoint x="100" as="offset" />
          </mxGeometry>
        </mxCell>
      </root>
    </mxGraphModel>
  </diagram>
</mxfile>
